<svg width="144" height="72" viewBox="0 0 144 72" fill="none" xmlns="http://www.w3.org/2000/svg">
<path d="M44 72C41.8 72 39.9167 71.2167 38.35 69.65C36.7833 68.0833 36 66.2 36 64V52H116V64C116 66.2 115.217 68.0833 113.65 69.65C112.083 71.2167 110.2 72 108 72H44ZM44 60V64H108V60H44ZM76 42C73.6 42 71.7 42.6667 70.3 44C68.9 45.3333 66.3333 46 62.6 46C58.8667 46 56.3333 45.3333 55 44C53.6667 42.6667 51.8 42 49.4 42C47 42 45.1 42.6667 43.7 44C42.3 45.3333 39.7333 46 36 46V38C38.4 38 40.3 37.3333 41.7 36C43.1 34.6667 45.6667 34 49.4 34C53.1333 34 55.6667 34.6667 57 36C58.3333 37.3333 60.2 38 62.6 38C65 38 66.9 37.3333 68.3 36C69.7 34.6667 72.2667 34 76 34C79.7333 34 82.3 34.6667 83.7 36C85.1 37.3333 87 38 89.4 38C91.8 38 93.6667 37.3333 95 36C96.3333 34.6667 98.8667 34 102.6 34C106.333 34 108.967 34.6667 110.5 36C112.033 37.3333 113.867 38 116 38V46C112.267 46 109.767 45.3333 108.5 44C107.233 42.6667 105.4 42 103 42C100.6 42 98.6667 42.6667 97.2 44C95.7333 45.3333 93.1333 46 89.4 46C85.6667 46 83.1 45.3333 81.7 44C80.3 42.6667 78.4 42 76 42ZM36 28V24C36 16.3333 39.6167 10.4167 46.85 6.25C54.0833 2.08333 63.8 0 76 0C88.2 0 97.9167 2.08333 105.15 6.25C112.383 10.4167 116 16.3333 116 24V28H36ZM76 8C67.7333 8 60.8167 9.03333 55.25 11.1C49.6833 13.1667 46.1333 16.1333 44.6 20H107.4C105.867 16.1333 102.317 13.1667 96.75 11.1C91.1833 9.03333 84.2667 8 76 8Z" fill="#FDF251"/>
<path d="M10.7294 72V39.06C7.68938 38.22 5.14115 36.54 3.08468 34.02C1.02821 31.5 -2.86102e-05 28.56 -2.86102e-05 25.2V0H7.15291V25.2H10.7294V0H17.8823V25.2H21.4588V0H28.6117V25.2C28.6117 28.56 27.5835 31.5 25.527 34.02C23.4706 36.54 20.9223 38.22 17.8823 39.06V72H10.7294ZM136.73 72V43.2H126V18C126 13.02 127.744 8.775 131.231 5.265C134.718 1.755 138.935 0 143.882 0V72H136.73Z" fill="#FDF251"/>
</svg>
