<svg width="61" height="72" viewBox="0 0 61 72" fill="none" xmlns="http://www.w3.org/2000/svg">
<path d="M7.57895 72C6.50526 72 5.60526 71.6368 4.87895 70.9105C4.15263 70.1842 3.78947 69.2842 3.78947 68.2105V60.4421C2.65263 59.1789 1.73684 57.7737 1.04211 56.2263C0.347368 54.679 0 52.9895 0 51.1579V15.1579C0 9.91579 2.43158 6.07895 7.29474 3.64737C12.1579 1.21579 19.8316 0 30.3158 0C41.1789 0 48.9474 1.16842 53.6211 3.50526C58.2947 5.84211 60.6316 9.72632 60.6316 15.1579V51.1579C60.6316 52.9895 60.2842 54.679 59.5895 56.2263C58.8947 57.7737 57.979 59.1789 56.8421 60.4421V68.2105C56.8421 69.2842 56.479 70.1842 55.7526 70.9105C55.0263 71.6368 54.1263 72 53.0526 72H49.2632C48.1895 72 47.2895 71.6368 46.5632 70.9105C45.8368 70.1842 45.4737 69.2842 45.4737 68.2105V64.4211H15.1579V68.2105C15.1579 69.2842 14.7947 70.1842 14.0684 70.9105C13.3421 71.6368 12.4421 72 11.3684 72H7.57895ZM30.5053 11.3684H51.7263H9.28421H30.5053ZM45.4737 37.8947H7.57895H53.0526H45.4737ZM7.57895 30.3158H53.0526V18.9474H7.57895V30.3158ZM17.0526 53.0526C18.6316 53.0526 19.9737 52.5 21.0789 51.3947C22.1842 50.2895 22.7368 48.9474 22.7368 47.3684C22.7368 45.7895 22.1842 44.4474 21.0789 43.3421C19.9737 42.2368 18.6316 41.6842 17.0526 41.6842C15.4737 41.6842 14.1316 42.2368 13.0263 43.3421C11.9211 44.4474 11.3684 45.7895 11.3684 47.3684C11.3684 48.9474 11.9211 50.2895 13.0263 51.3947C14.1316 52.5 15.4737 53.0526 17.0526 53.0526ZM43.5789 53.0526C45.1579 53.0526 46.5 52.5 47.6053 51.3947C48.7105 50.2895 49.2632 48.9474 49.2632 47.3684C49.2632 45.7895 48.7105 44.4474 47.6053 43.3421C46.5 42.2368 45.1579 41.6842 43.5789 41.6842C42 41.6842 40.6579 42.2368 39.5526 43.3421C38.4474 44.4474 37.8947 45.7895 37.8947 47.3684C37.8947 48.9474 38.4474 50.2895 39.5526 51.3947C40.6579 52.5 42 53.0526 43.5789 53.0526ZM9.28421 11.3684H51.7263C50.7789 10.2947 48.7421 9.39474 45.6158 8.66842C42.4895 7.94211 37.4526 7.57895 30.5053 7.57895C23.7474 7.57895 18.8053 7.97368 15.6789 8.76316C12.5526 9.55263 10.4211 10.4211 9.28421 11.3684ZM15.1579 56.8421H45.4737C47.5579 56.8421 49.3421 56.1 50.8263 54.6158C52.3105 53.1316 53.0526 51.3474 53.0526 49.2632V37.8947H7.57895V49.2632C7.57895 51.3474 8.32105 53.1316 9.80526 54.6158C11.2895 56.1 13.0737 56.8421 15.1579 56.8421Z" fill="#FDF251"/>
</svg>
