<svg width="72" height="72" viewBox="0 0 72 72" fill="none" xmlns="http://www.w3.org/2000/svg">
<path d="M47.88 52.92L52.92 47.88L39.6 34.56V18H32.4V37.44L47.88 52.92ZM36 72C31.02 72 26.34 71.055 21.96 69.165C17.58 67.275 13.77 64.71 10.53 61.47C7.29 58.23 4.725 54.42 2.835 50.04C0.945 45.66 0 40.98 0 36C0 31.02 0.945 26.34 2.835 21.96C4.725 17.58 7.29 13.77 10.53 10.53C13.77 7.29 17.58 4.725 21.96 2.835C26.34 0.945 31.02 0 36 0C40.98 0 45.66 0.945 50.04 2.835C54.42 4.725 58.23 7.29 61.47 10.53C64.71 13.77 67.275 17.58 69.165 21.96C71.055 26.34 72 31.02 72 36C72 40.98 71.055 45.66 69.165 50.04C67.275 54.42 64.71 58.23 61.47 61.47C58.23 64.71 54.42 67.275 50.04 69.165C45.66 71.055 40.98 72 36 72ZM36 64.8C43.98 64.8 50.775 61.995 56.385 56.385C61.995 50.775 64.8 43.98 64.8 36C64.8 28.02 61.995 21.225 56.385 15.615C50.775 10.005 43.98 7.2 36 7.2C28.02 7.2 21.225 10.005 15.615 15.615C10.005 21.225 7.2 28.02 7.2 36C7.2 43.98 10.005 50.775 15.615 56.385C21.225 61.995 28.02 64.8 36 64.8Z" fill="#FDF251"/>
</svg>
