<svg width="144" height="72" viewBox="0 0 144 72" fill="none" xmlns="http://www.w3.org/2000/svg">
<path d="M10.7294 72V39.06C7.68938 38.22 5.14115 36.54 3.08468 34.02C1.02821 31.5 -2.86102e-05 28.56 -2.86102e-05 25.2V0H7.15291V25.2H10.7294V0H17.8823V25.2H21.4588V0H28.6117V25.2C28.6117 28.56 27.5835 31.5 25.527 34.02C23.4706 36.54 20.9223 38.22 17.8823 39.06V72H10.7294ZM136.73 72V43.2H126V18C126 13.02 127.744 8.775 131.231 5.265C134.718 1.755 138.935 0 143.882 0V72H136.73Z" fill="#FDF251"/>
</svg>
