<svg width="72" height="72" viewBox="0 0 72 72" fill="none" xmlns="http://www.w3.org/2000/svg">
<path d="M60.03 62.55L62.55 60.03L55.8 53.28V43.2H52.2V54.72L60.03 62.55ZM7.2 64.8C5.22 64.8 3.525 64.095 2.115 62.685C0.705 61.275 0 59.58 0 57.6V7.2C0 5.22 0.705 3.525 2.115 2.115C3.525 0.705 5.22 0 7.2 0H57.6C59.58 0 61.275 0.705 62.685 2.115C64.095 3.525 64.8 5.22 64.8 7.2V31.32C63.66 30.78 62.49 30.315 61.29 29.925C60.09 29.535 58.86 29.25 57.6 29.07V7.2H7.2V57.6H28.98C29.16 58.92 29.445 60.18 29.835 61.38C30.225 62.58 30.69 63.72 31.23 64.8H7.2ZM7.2 54V57.6V7.2V29.07V28.8V54ZM14.4 50.4H29.07C29.25 49.14 29.535 47.91 29.925 46.71C30.315 45.51 30.75 44.34 31.23 43.2H14.4V50.4ZM14.4 36H36.36C38.28 34.2 40.425 32.7 42.795 31.5C45.165 30.3 47.7 29.49 50.4 29.07V28.8H14.4V36ZM14.4 21.6H50.4V14.4H14.4V21.6ZM54 72C49.02 72 44.775 70.245 41.265 66.735C37.755 63.225 36 58.98 36 54C36 49.02 37.755 44.775 41.265 41.265C44.775 37.755 49.02 36 54 36C58.98 36 63.225 37.755 66.735 41.265C70.245 44.775 72 49.02 72 54C72 58.98 70.245 63.225 66.735 66.735C63.225 70.245 58.98 72 54 72Z" fill="#FDF251"/>
</svg>
